Coordinates
nRows=243
nColumns=2
inDegrees=yes
endheader
time	ankle_angle_r	
3.39293	  9.399414	
3.42619	  9.429932	
3.45946	  9.429932	
3.49272	  9.368896	
3.52598	  9.399414	
3.55925	  9.384155	
3.59251	  9.368896	
3.62578	  9.399414	
3.65904	  9.429932	
3.6923	  9.384155	
3.72557	  9.475708	
3.75883	  9.506226	
3.7921	  9.475708	
3.82536	  9.521484	
3.85862	  9.536743	
3.89189	  9.384155	
3.92515	  9.521484	
3.95842	  9.490967	
3.99168	  9.460449	
4.02494	  9.521484	
4.05821	  9.536743	
4.09147	  9.460449	
4.12474	  9.536743	
4.158	  9.552002	
4.19126	  9.399414	
4.22453	  9.490967	
4.25779	  9.521484	
4.29106	  9.414673	
4.32432	  9.490967	
4.35758	  9.490967	
4.39085	  9.384155	
4.42411	  9.475708	
4.45738	  9.475708	
4.49064	  9.399414	
4.5239	  9.414673	
4.55717	  9.490967	
4.59043	  9.399414	
4.6237	  9.429932	
4.65696	  9.445190	
4.69022	  9.429932	
4.72349	  9.384155	
4.75675	  9.414673	
4.79002	  9.353638	
4.82328	  9.399414	
4.85654	  9.399414	
4.88981	  9.307861	
4.92307	  9.368896	
4.95634	  9.384155	
4.9896	  9.338379	
5.02286	  9.399414	
5.05613	  9.384155	
5.08939	  9.323120	
5.12266	  9.384155	
5.15592	  9.323120	
5.18918	  9.277344	
5.22245	  9.353638	
5.25571	  9.323120	
5.28898	  9.323120	
5.32224	  9.353638	
5.3555	  9.307861	
5.38877	  9.292603	
5.42203	  9.353638	
5.4553	  9.307861	
5.48856	  9.277344	
5.52182	  9.338379	
5.55509	  9.277344	
5.58835	  9.307861	
5.62162	  9.384155	
5.65488	  9.368896	
5.68814	  9.368896	
5.72141	  9.460449	
5.75467	  9.368896	
5.78794	  9.399414	
5.8212	  9.368896	
5.85446	  9.368896	
5.88773	  9.429932	
5.92099	  9.384155	
5.95426	  9.338379	
5.98752	  9.368896	
6.02078	  9.399414	
6.05405	  9.353638	
6.08731	  9.338379	
6.12058	  9.506226	
6.15384	  9.399414	
6.1871	  9.323120	
6.22037	  9.399414	
6.25363	  9.277344	
6.2869	  9.338379	
6.32016	  9.429932	
6.35342	  9.307861	
6.38669	  9.307861	
6.41995	  9.460449	
6.45322	  9.307861	
6.48648	  9.353638	
6.51974	  9.460449	
6.55301	  9.353638	
6.58627	  9.368896	
6.61954	  9.475708	
6.6528	  9.384155	
6.68606	  9.353638	
6.71933	  9.429932	
6.75259	  9.323120	
6.78586	  9.368896	
6.81912	  9.414673	
6.85238	  9.368896	
6.88565	  9.445190	
6.91891	  9.414673	
6.95218	  9.368896	
6.98544	  9.353638	
7.0187	  9.368896	
7.05197	  9.338379	
7.08523	  9.368896	
7.1185	  9.338379	
7.15176	  9.353638	
7.18502	  9.414673	
7.21829	  9.368896	
7.25155	  9.353638	
7.28482	  9.429932	
7.31808	  9.414673	
7.35134	  9.338379	
7.38461	  9.414673	
7.41787	  9.414673	
7.45114	  9.353638	
7.4844	  9.399414	
7.51766	  9.399414	
7.55093	  9.368896	
7.58419	  9.384155	
7.61746	  9.399414	
7.65072	  9.323120	
7.68398	  9.429932	
7.71725	  9.429932	
7.75051	  9.399414	
7.78378	  9.445190	
7.81704	  9.521484	
7.8503	  9.368896	
7.88357	  9.460449	
7.91683	  9.490967	
7.9501	  9.429932	
7.98336	  9.490967	
8.01662	  9.506226	
8.04989	  9.414673	
8.08315	  9.521484	
8.11642	  9.521484	
8.14968	  9.414673	
8.18294	  9.521484	
8.21621	  9.536743	
8.24947	  9.384155	
8.28274	  9.414673	
8.316	  9.521484	
8.34926	  9.384155	
8.38253	  9.445190	
8.41579	  9.445190	
8.44906	  9.414673	
8.48232	  9.414673	
8.51558	  9.445190	
8.54885	  9.445190	
8.58211	  9.460449	
8.61538	  9.368896	
8.64864	  9.399414	
8.6819	  9.384155	
8.71517	  9.368896	
8.74843	  9.368896	
8.7817	  9.429932	
8.81496	  9.338379	
8.84822	  9.414673	
8.88149	  9.460449	
8.91475	  9.323120	
8.94802	  9.429932	
8.98128	  9.460449	
9.01454	  9.368896	
9.04781	  9.338379	
9.08107	  9.414673	
9.11434	  9.368896	
9.1476	  9.368896	
9.18086	  9.414673	
9.21413	  9.338379	
9.24739	  9.307861	
9.28066	  9.399414	
9.31392	  9.323120	
9.34718	  9.353638	
9.38045	  9.323120	
9.41371	  9.399414	
9.44698	  9.353638	
9.48024	  9.399414	
9.5135	  9.368896	
9.54677	  9.368896	
9.58003	  9.414673	
9.6133	  9.353638	
9.64656	  9.292603	
9.67982	  9.460449	
9.71309	  9.384155	
9.74635	  9.384155	
9.77962	  9.445190	
9.81288	  9.353638	
9.84614	  9.307861	
9.87941	  9.353638	
9.91267	  9.292603	
9.94594	  9.307861	
9.9792	  9.368896	
10.0125	  9.262085	
10.0457	  9.338379	
10.079	  9.384155	
10.1123	  9.323120	
10.1455	  9.323120	
10.1788	  9.384155	
10.212	  9.292603	
10.2453	  9.399414	
10.2786	  9.384155	
10.3118	  9.307861	
10.3451	  9.399414	
10.3784	  9.384155	
10.4116	  9.338379	
10.4449	  9.399414	
10.4782	  9.384155	
10.5114	  9.323120	
10.5447	  9.384155	
10.578	  9.368896	
10.6112	  9.368896	
10.6445	  9.414673	
10.6777	  9.414673	
10.711	  9.323120	
10.7443	  9.445190	
10.7775	  9.414673	
10.8108	  9.338379	
10.8441	  9.445190	
10.8773	  9.521484	
10.9106	  9.368896	
10.9439	  9.460449	
10.9771	  9.490967	
11.0104	  9.399414	
11.0436	  9.445190	
11.0769	  9.552002	
11.1102	  9.429932	
11.1434	  9.490967	
11.1767	  9.506226	
11.21	  9.460449	
11.2432	  9.490967	
11.2765	  9.536743	
11.3098	  9.460449	
11.343	  9.490967	
11.3763	  9.490967	
11.4096	  9.475708	
11.4428	  9.506226	
